<?xml version='1.0' encoding='UTF-8'?>
<svg height="100%" version="1.1" width="100%" xmlns="http://www.w3.org/2000/svg"><g stroke-dasharray="7,3" style="stroke:#000000;stroke-width:1;stroke-opacity:0.3"><line x1="180" x2="180" y1="1" y2="299" /><line x1="1340" x2="1340" y1="1" y2="299" /><line x1="0" x2="1520" y1="150.0" y2="150.0" /><line x1="760.0" x2="760.0" y1="20" y2="280" /></g><g><text fill="black" fill-opacity="0.6" x="800" y="200">© BoardCAM</text><text fill="black" font-family="Times-Italic" font-size="9" x="805" y="215">design it. build it. enjoy it.</text></g><g style="stroke:black;stroke-width:0.3"><text fill="black" font-size="3" x="12" y="8">1cm</text><line x1="10" x2="10" y1="8" y2="12" /><line stroke-width="0.8" x1="10" x2="20" y1="10" y2="10" /><line x1="20" x2="20" y1="8" y2="12" /></g><polyline points="0.0,150.0 0.03582,153.86709 0.14256000000000002,157.66872 0.31914,161.40543 0.56448,165.07776000000004 0.8775000000000002,168.68625 1.25712,172.23144000000002 1.7022599999999999,175.71387000000001 2.2118400000000005,179.13407999999998 2.78478,182.49260999999998 3.420000000000001,185.79 4.11642,189.02678999999998 4.87296,192.20352 5.688540000000001,195.32073000000003 6.562080000000002,198.37896 7.4925,201.37875000000003 8.47872,204.32064000000003 9.519660000000002,207.20517 10.61424,210.03287999999998 11.76138,212.80431 12.960000000000004,215.51999999999998 14.209019999999999,218.18049 15.50736,220.78632 16.85394,223.33803 18.24768,225.83616 19.6875,228.28125 21.17232,230.67384 22.701060000000005,233.01447000000002 24.272640000000003,235.30367999999999 25.885979999999996,237.54201 27.539999999999996,239.73000000000002 29.233620000000002,241.86819 30.96576,243.95712 32.73534,245.99733000000003 34.54128,247.98936000000003 36.38250000000001,249.93375000000003 38.25792,251.83104 40.16646,253.68177 42.10704,255.48648 44.07858,257.24571000000003 46.08000000000001,258.96 48.110220000000005,260.62989 50.16815999999999,262.25592 52.252739999999996,263.83862999999997 54.362880000000004,265.37856 56.49750000000001,266.87624999999997 58.65552000000001,268.33224 60.83586000000001,269.74707 63.037440000000004,271.12128 65.25917999999999,272.45541 67.5,273.75 69.75882000000001,275.00559 72.03456,276.22272 74.32614000000001,277.40193 76.63248000000002,278.54376 78.9525,279.64875 81.28512,280.71744 83.62926000000002,281.75037 85.98383999999999,282.74808 88.34778,283.71111 90.72,284.64 93.09942000000001,285.53529 95.48496,286.39752 97.87554,287.22723 100.27008000000001,288.02496 102.6675,288.79125 105.06672,289.52664 107.46666000000002,290.23167 109.86624,290.90688 112.26438000000002,291.55281 114.66000000000001,292.17 117.05201999999998,292.75899 119.43936,293.32032 121.82093999999998,293.85453 124.19568000000001,294.36216 126.5625,294.84375 128.92032,295.29984 131.26806,295.73097 133.60464000000002,296.13768 135.92898000000002,296.52051 138.24,296.88 140.53662,297.21669 142.81776000000002,297.53112 145.08234000000002,297.82383 147.32927999999998,298.09535999999997 149.5575,298.34625 151.76592,298.57704 153.95346,298.78827 156.11903999999998,298.98048 158.26158,299.15421 160.38000000000002,299.31 162.47322000000003,299.44839 164.54016000000001,299.56992 166.57974000000002,299.67513 168.59088,299.76456 170.57250000000002,299.83875 172.52351999999996,299.89824 174.44286,299.94357 176.32944,299.97528 178.18218,299.99391 180.0,300.0 180,300.0 190,299.27938609664307 200,298.5713679915216 210,297.87594233243453 220,297.1931058279579 230,296.52285524737 240,295.8651874205689 250,295.22009923800397 260,294.5875876505952 270,293.9676496696675 280,293.3602823668725 290,292.76548287412425 300,292.18324838352964 310,291.6135761473215 320,291.05646347779384 330,290.5119077472391 340,289.9799063878818 350,289.460456891823 360,288.95355681097953 370,288.4592037570246 380,287.9773954013308 390,287.50812947491795 400,287.051403768397 410,286.6072161319189 420,286.1755644751247 430,285.75644676709544 440,285.3498610363022 450,284.9558053705623 460,284.5742779169941 470,284.205276881974 480,283.8488005310883 490,283.5048471891032 500,283.1734152399131 510,282.8545031265139 520,282.548109350957 530,282.2542324743199 540,281.97287111667174 550,281.70402395703695 560,281.44768973336977 570,281.20386724251966 580,280.9725553402077 590,280.7537529409947 600,280.54745901825936 610,280.3536726041739 620,280.17239278967827 630,280.0036187244632 640,279.8473496169472 650,279.7035847342595 660,279.5723234022216 670,279.45356500533126 680,279.34730898675116 690,279.25355484829197 700,279.1723021504031 710,279.1035505121599 720,279.0472996112594 730,279.00354918400717 740,278.972299025314 750,278.953548988693 760,278.94729898625155 770,278.953548988693 780,278.972299025314 790,279.00354918400717 800,279.0472996112594 810,279.1035505121599 820,279.1723021504031 830,279.25355484829197 840,279.34730898675116 850,279.45356500533126 860,279.5723234022216 870,279.7035847342595 880,279.8473496169472 890,280.0036187244632 900,280.17239278967827 910,280.3536726041739 920,280.54745901825936 930,280.7537529409947 940,280.9725553402077 950,281.20386724251966 960,281.44768973336977 970,281.70402395703695 980,281.97287111667174 990,282.2542324743199 1000,282.548109350957 1010,282.8545031265139 1020,283.1734152399131 1030,283.5048471891032 1040,283.8488005310883 1050,284.205276881974 1060,284.5742779169941 1070,284.9558053705623 1080,285.3498610363022 1090,285.75644676709544 1100,286.1755644751247 1110,286.6072161319189 1120,287.051403768397 1130,287.50812947491795 1140,287.9773954013308 1150,288.4592037570246 1160,288.95355681097953 1170,289.460456891823 1180,289.9799063878818 1190,290.5119077472391 1200,291.05646347779384 1210,291.6135761473215 1220,292.18324838352964 1230,292.76548287412425 1240,293.3602823668725 1250,293.9676496696675 1260,294.5875876505952 1270,295.22009923800397 1280,295.8651874205689 1290,296.52285524737 1300,297.1931058279579 1310,297.87594233243453 1320,298.5713679915216 1330,299.27938609664307 1340,300.0 1340.0,300.0 1341.81782,299.99391 1343.67056,299.97528 1345.55714,299.94357 1347.47648,299.89824 1349.4275,299.83875 1351.40912,299.76456 1353.4202599999999,299.67513 1355.45984,299.56992 1357.52678,299.44839 1359.62,299.31 1361.73842,299.15421 1363.88096,298.98048 1366.04654,298.78827 1368.23408,298.57704 1370.4425,298.34625 1372.67072,298.09535999999997 1374.91766,297.82383 1377.18224,297.53112 1379.46338,297.21669 1381.76,296.88 1384.0710199999999,296.52051 1386.39536,296.13768 1388.7319400000001,295.73097 1391.07968,295.29984 1393.4375,294.84375 1395.80432,294.36216 1398.17906,293.85453 1400.56064,293.32032 1402.94798,292.75899 1405.34,292.17 1407.73562,291.55281 1410.13376,290.90688 1412.53334,290.23167 1414.93328,289.52664 1417.3325,288.79125 1419.72992,288.02496 1422.12446,287.22723 1424.51504,286.39752 1426.90058,285.53529 1429.28,284.64 1431.65222,283.71111 1434.0161600000001,282.74808 1436.3707399999998,281.75037 1438.71488,280.71744 1441.0475000000001,279.64875 1443.36752,278.54376 1445.6738599999999,277.40193 1447.96544,276.22272 1450.24118,275.00559 1452.5,273.75 1454.74082,272.45541 1456.96256,271.12128 1459.1641399999999,269.74707 1461.34448,268.33224 1463.5025,266.87624999999997 1465.6371199999999,265.37856 1467.74726,263.83862999999997 1469.83184,262.25592 1471.88978,260.62989 1473.92,258.96 1475.9214200000001,257.24571000000003 1477.8929600000001,255.48648 1479.83354,253.68177 1481.74208,251.83104 1483.6175,249.93375000000003 1485.45872,247.98936000000003 1487.26466,245.99733000000003 1489.03424,243.95712 1490.76638,241.86819 1492.46,239.73000000000002 1494.11402,237.54201 1495.7273599999999,235.30367999999999 1497.2989400000001,233.01447000000002 1498.8276799999999,230.67384 1500.3125,228.28125 1501.75232,225.83616 1503.14606,223.33803 1504.49264,220.78632 1505.79098,218.18049 1507.04,215.51999999999998 1508.23862,212.80431 1509.3857600000001,210.03287999999998 1510.48034,207.20517 1511.52128,204.32064000000003 1512.5075,201.37875000000003 1513.43792,198.37896 1514.31146,195.32073000000003 1515.12704,192.20352 1515.88358,189.02678999999998 1516.58,185.79 1517.21522,182.49260999999998 1517.78816,179.13407999999998 1518.29774,175.71387000000001 1518.74288,172.23144000000002 1519.1225,168.68625 1519.43552,165.07776000000004 1519.68086,161.40543 1519.85744,157.66872 1519.96418,153.86709 1520.0,150.0 1520.0,150.0 1519.96418,146.13291 1519.85744,142.33128 1519.68086,138.59457 1519.43552,134.92223999999996 1519.1225,131.31375 1518.74288,127.76855999999998 1518.29774,124.28612999999999 1517.78816,120.86592 1517.21522,117.50739000000002 1516.58,114.21000000000001 1515.88358,110.97321000000002 1515.12704,107.79648 1514.31146,104.67926999999999 1513.43792,101.62104 1512.5075,98.62124999999999 1511.52128,95.67935999999997 1510.48034,92.79482999999999 1509.3857600000001,89.96712000000002 1508.23862,87.19569000000001 1507.04,84.48000000000002 1505.79098,81.81951000000001 1504.49264,79.21368 1503.14606,76.66197 1501.75232,74.16384000000001 1500.3125,71.71875 1498.8276799999999,69.32615999999999 1497.2989400000001,66.98553 1495.7273599999999,64.69632 1494.11402,62.45798999999998 1492.46,60.26999999999999 1490.76638,58.131809999999994 1489.03424,56.04287999999999 1487.26466,54.00266999999998 1485.45872,52.01063999999998 1483.6175,50.06624999999998 1481.74208,48.168960000000006 1479.83354,46.31823 1477.8929600000001,44.51351999999999 1475.9214200000001,42.75429 1473.92,41.04 1471.88978,39.37011 1469.83184,37.74408000000001 1467.74726,36.16137000000001 1465.6371199999999,34.62144000000001 1463.5025,33.12375000000001 1461.34448,31.66776 1459.1641399999999,30.252930000000003 1456.96256,28.87872 1454.74082,27.544590000000003 1452.5,26.25 1450.24118,24.99441 1447.96544,23.777279999999998 1445.6738599999999,22.59807 1443.36752,21.456239999999998 1441.0475000000001,20.351249999999993 1438.71488,19.282559999999997 1436.3707399999998,18.249629999999996 1434.0161600000001,17.251920000000002 1431.65222,16.288890000000002 1429.28,15.360000000000003 1426.90058,14.46471 1424.51504,13.60248 1422.12446,12.77277 1419.72992,11.97504 1417.3325,11.208749999999998 1414.93328,10.47336 1412.53334,9.768329999999997 1410.13376,9.093119999999995 1407.73562,8.447189999999997 1405.34,7.8299999999999965 1402.94798,7.241010000000002 1400.56064,6.679680000000001 1398.17906,6.14547 1395.80432,5.637840000000001 1393.4375,5.15625 1391.07968,4.7001599999999994 1388.7319400000001,4.269029999999999 1386.39536,3.862319999999999 1384.0710199999999,3.4794899999999984 1381.76,3.1199999999999983 1379.46338,2.7833099999999984 1377.18224,2.468879999999998 1374.91766,2.176169999999998 1372.67072,1.904640000000001 1370.4425,1.6537500000000005 1368.23408,1.4229600000000002 1366.04654,1.21173 1363.88096,1.01952 1361.73842,0.8457899999999998 1359.62,0.6899999999999996 1357.52678,0.5516099999999996 1355.45984,0.4300799999999995 1353.4202599999999,0.32486999999999955 1351.40912,0.2354399999999995 1349.4275,0.16124999999999956 1347.47648,0.10176000000000018 1345.55714,0.056430000000000105 1343.67056,0.024720000000000044 1341.81782,0.00609000000000001 1340.0,0.0 1340,0.0 1330,0.7206139033569343 1320,1.4286320084784165 1310,2.1240576675654665 1300,2.8068941720421208 1290,3.4771447526300108 1280,4.134812579431127 1270,4.779900761996032 1260,5.4124123494048035 1250,6.03235033033252 1240,6.639717633127475 1230,7.234517125875755 1220,7.816751616470356 1210,8.38642385267849 1200,8.94353652220616 1190,9.488092252760907 1180,10.020093612118217 1170,10.539543108176986 1160,11.046443189020465 1150,11.540796242975375 1140,12.022604598669204 1130,12.49187052508205 1120,12.948596231603005 1110,13.392783868081096 1100,13.824435524875298 1090,14.24355323290456 1080,14.650138963697827 1070,15.044194629437698 1060,15.425722083005894 1050,15.794723118026013 1040,16.151199468911727 1030,16.495152810896798 1020,16.826584760086917 1010,17.14549687348608 1000,17.45189064904298 990,17.745767525680094 980,18.02712888332826 970,18.295976042963048 960,18.55231026663023 950,18.796132757480336 940,19.02744465979231 930,19.246247059005327 920,19.45254098174064 910,19.64632739582612 900,19.82760721032173 890,19.996381275536805 880,20.152650383052787 870,20.296415265740507 860,20.427676597778373 850,20.546434994668743 840,20.65269101324884 830,20.74644515170803 820,20.827697849596916 810,20.896449487840073 800,20.952700388740595 790,20.99645081599283 780,21.027700974686013 770,21.046451011307 760,21.052701013748447 750,21.046451011307 740,21.027700974686013 730,20.99645081599283 720,20.952700388740595 710,20.896449487840073 700,20.827697849596916 690,20.74644515170803 680,20.65269101324884 670,20.546434994668743 660,20.427676597778373 650,20.296415265740507 640,20.152650383052787 630,19.996381275536805 620,19.82760721032173 610,19.64632739582612 600,19.45254098174064 590,19.246247059005327 580,19.02744465979231 570,18.796132757480336 560,18.55231026663023 550,18.295976042963048 540,18.02712888332826 530,17.745767525680094 520,17.45189064904298 510,17.14549687348608 500,16.826584760086917 490,16.495152810896798 480,16.151199468911727 470,15.794723118026013 460,15.425722083005894 450,15.044194629437698 440,14.650138963697827 430,14.24355323290456 420,13.824435524875298 410,13.392783868081096 400,12.948596231603005 390,12.49187052508205 380,12.022604598669204 370,11.540796242975375 360,11.046443189020465 350,10.539543108176986 340,10.020093612118217 330,9.488092252760907 320,8.94353652220616 310,8.38642385267849 300,7.816751616470356 290,7.234517125875755 280,6.639717633127475 270,6.03235033033252 260,5.4124123494048035 250,4.779900761996032 240,4.134812579431127 230,3.4771447526300108 220,2.8068941720421208 210,2.1240576675654665 200,1.4286320084784165 190,0.7206139033569343 180,0.0 180.0,0.0 178.18218,0.00609000000000001 176.32944,0.024720000000000044 174.44286,0.056430000000000105 172.52351999999996,0.10176000000000018 170.57250000000002,0.16124999999999956 168.59088,0.2354399999999995 166.57974000000002,0.32486999999999955 164.54016000000001,0.4300799999999995 162.47322000000003,0.5516099999999996 160.38000000000002,0.6899999999999996 158.26158,0.8457899999999998 156.11903999999998,1.01952 153.95346,1.21173 151.76592,1.4229600000000002 149.5575,1.6537500000000005 147.32927999999998,1.904640000000001 145.08234000000002,2.176169999999998 142.81776000000002,2.468879999999998 140.53662,2.7833099999999984 138.24,3.1199999999999983 135.92898000000002,3.4794899999999984 133.60464000000002,3.862319999999999 131.26806,4.269029999999999 128.92032,4.7001599999999994 126.5625,5.15625 124.19568000000001,5.637840000000001 121.82093999999998,6.14547 119.43936,6.679680000000001 117.05201999999998,7.241010000000002 114.66000000000001,7.8299999999999965 112.26438000000002,8.447189999999997 109.86624,9.093119999999995 107.46666000000002,9.768329999999997 105.06672,10.47336 102.6675,11.208749999999998 100.27008000000001,11.97504 97.87554,12.77277 95.48496,13.60248 93.09942000000001,14.46471 90.72,15.360000000000003 88.34778,16.288890000000002 85.98383999999999,17.251920000000002 83.62926000000002,18.249629999999996 81.28512,19.282559999999997 78.9525,20.351249999999993 76.63248000000002,21.456239999999998 74.32614000000001,22.59807 72.03456,23.777279999999998 69.75882000000001,24.99441 67.5,26.25 65.25917999999999,27.544590000000003 63.037440000000004,28.87872 60.83586000000001,30.252930000000003 58.65552000000001,31.66776 56.49750000000001,33.12375000000001 54.362880000000004,34.62144000000001 52.252739999999996,36.16137000000001 50.16815999999999,37.74408000000001 48.110220000000005,39.37011 46.08000000000001,41.04 44.07858,42.75429 42.10704,44.51351999999999 40.16646,46.31823 38.25792,48.168960000000006 36.38250000000001,50.06624999999998 34.54128,52.01063999999998 32.73534,54.00266999999998 30.96576,56.04287999999999 29.233620000000002,58.131809999999994 27.539999999999996,60.26999999999999 25.885979999999996,62.45798999999998 24.272640000000003,64.69632 22.701060000000005,66.98553 21.17232,69.32615999999999 19.6875,71.71875 18.24768,74.16384000000001 16.85394,76.66197 15.50736,79.21368 14.209019999999999,81.81951000000001 12.960000000000004,84.48000000000002 11.76138,87.19569000000001 10.61424,89.96712000000002 9.519660000000002,92.79482999999999 8.47872,95.67935999999997 7.4925,98.62124999999999 6.562080000000002,101.62104 5.688540000000001,104.67926999999999 4.87296,107.79648 4.11642,110.97321000000002 3.420000000000001,114.21000000000001 2.78478,117.50739000000002 2.2118400000000005,120.86592 1.7022599999999999,124.28612999999999 1.25712,127.76855999999998 0.8775000000000002,131.31375 0.56448,134.92223999999996 0.31914,138.59457 0.14256000000000002,142.33128 0.03582,146.13291 0.0,150.0" style="fill:none;stroke:black;stroke-width:1" /><g style="stroke-width:1;stroke:black"><circle cx="425.0" cy="130.0" r="0.2" style="fill:blue;fill-opacity:0.25" /><circle cx="425.0" cy="130.0" r="5" style="fill:blue;fill-opacity:0.25" /><circle cx="425.0" cy="130.0" r="9" style="fill:blue;fill-opacity:0.25" /><circle cx="425.0" cy="170.0" r="0.2" style="fill:blue;fill-opacity:0.25" /><circle cx="425.0" cy="170.0" r="5" style="fill:blue;fill-opacity:0.25" /><circle cx="425.0" cy="170.0" r="9" style="fill:blue;fill-opacity:0.25" /><circle cx="975.0" cy="130.0" r="0.2" style="fill:blue;fill-opacity:0.25" /><circle cx="975.0" cy="130.0" r="5" style="fill:blue;fill-opacity:0.25" /><circle cx="975.0" cy="130.0" r="9" style="fill:blue;fill-opacity:0.25" /><circle cx="975.0" cy="170.0" r="0.2" style="fill:blue;fill-opacity:0.25" /><circle cx="975.0" cy="170.0" r="5" style="fill:blue;fill-opacity:0.25" /><circle cx="975.0" cy="170.0" r="9" style="fill:blue;fill-opacity:0.25" /><circle cx="465.0" cy="130.0" r="0.2" style="fill:blue;fill-opacity:0.25" /><circle cx="465.0" cy="130.0" r="5" style="fill:blue;fill-opacity:0.25" /><circle cx="465.0" cy="130.0" r="9" style="fill:blue;fill-opacity:0.25" /><circle cx="465.0" cy="170.0" r="0.2" style="fill:blue;fill-opacity:0.25" /><circle cx="465.0" cy="170.0" r="5" style="fill:blue;fill-opacity:0.25" /><circle cx="465.0" cy="170.0" r="9" style="fill:blue;fill-opacity:0.25" /><circle cx="1015.0" cy="130.0" r="0.2" style="fill:blue;fill-opacity:0.25" /><circle cx="1015.0" cy="130.0" r="5" style="fill:blue;fill-opacity:0.25" /><circle cx="1015.0" cy="130.0" r="9" style="fill:blue;fill-opacity:0.25" /><circle cx="1015.0" cy="170.0" r="0.2" style="fill:blue;fill-opacity:0.25" /><circle cx="1015.0" cy="170.0" r="5" style="fill:blue;fill-opacity:0.25" /><circle cx="1015.0" cy="170.0" r="9" style="fill:blue;fill-opacity:0.25" /><circle cx="505.0" cy="130.0" r="0.2" style="fill:blue;fill-opacity:0.25" /><circle cx="505.0" cy="130.0" r="5" style="fill:blue;fill-opacity:0.25" /><circle cx="505.0" cy="130.0" r="9" style="fill:blue;fill-opacity:0.25" /><circle cx="505.0" cy="170.0" r="0.2" style="fill:blue;fill-opacity:0.25" /><circle cx="505.0" cy="170.0" r="5" style="fill:blue;fill-opacity:0.25" /><circle cx="505.0" cy="170.0" r="9" style="fill:blue;fill-opacity:0.25" /><circle cx="1055.0" cy="130.0" r="0.2" style="fill:blue;fill-opacity:0.25" /><circle cx="1055.0" cy="130.0" r="5" style="fill:blue;fill-opacity:0.25" /><circle cx="1055.0" cy="130.0" r="9" style="fill:blue;fill-opacity:0.25" /><circle cx="1055.0" cy="170.0" r="0.2" style="fill:blue;fill-opacity:0.25" /><circle cx="1055.0" cy="170.0" r="5" style="fill:blue;fill-opacity:0.25" /><circle cx="1055.0" cy="170.0" r="9" style="fill:blue;fill-opacity:0.25" /><circle cx="545.0" cy="130.0" r="0.2" style="fill:blue;fill-opacity:0.25" /><circle cx="545.0" cy="130.0" r="5" style="fill:blue;fill-opacity:0.25" /><circle cx="545.0" cy="130.0" r="9" style="fill:blue;fill-opacity:0.25" /><circle cx="545.0" cy="170.0" r="0.2" style="fill:blue;fill-opacity:0.25" /><circle cx="545.0" cy="170.0" r="5" style="fill:blue;fill-opacity:0.25" /><circle cx="545.0" cy="170.0" r="9" style="fill:blue;fill-opacity:0.25" /><circle cx="1095.0" cy="130.0" r="0.2" style="fill:blue;fill-opacity:0.25" /><circle cx="1095.0" cy="130.0" r="5" style="fill:blue;fill-opacity:0.25" /><circle cx="1095.0" cy="130.0" r="9" style="fill:blue;fill-opacity:0.25" /><circle cx="1095.0" cy="170.0" r="0.2" style="fill:blue;fill-opacity:0.25" /><circle cx="1095.0" cy="170.0" r="5" style="fill:blue;fill-opacity:0.25" /><circle cx="1095.0" cy="170.0" r="9" style="fill:blue;fill-opacity:0.25" /></g></svg>