<?xml version='1.0' encoding='UTF-8'?>
<svg height="100%" version="1.1" width="100%" xmlns="http://www.w3.org/2000/svg"><polyline points="0.0,0.0 7.658329230041687,7.1415075416229 15.561228231737346,14.011392834098075 23.69906854000166,20.601285980421267 32.06193544995722,26.903158210888904 40.63964009647512,32.909331664917175 49.42173186773769,38.612488745332485 58.39751113769913,44.005681033736266 67.55604230193191,49.08233775608272 76.88616710097591,53.836273788154756 86.37651821495908,58.26169719118491 96.01553311292557,62.35321626844092 105.7914681399985,66.10584613417717 115.69241282521492,69.5150147869507 125.70630439259938,72.57656867990033 135.8209424577988,75.28677778120363 146.02400389237133,77.64234011854631 156.30305783762006,79.64038580206704 166.64558084967942,81.27848052087575 177.03897215740315,82.55462850888665 187.47056901446152,83.46727497635192 197.92766212694883,84.01530800413337 208.39751113769913,84.19805989840467 208.39751113769913,84.19805989840467 218.39751113769913,83.68425738141383 228.39751113769913,83.17941353660905 238.39751113769913,82.6835271517121 248.39751113769913,82.19659703616895 258.3975111376991,81.7186220211334 268.3975111376991,81.24960095945613 278.3975111376991,80.78953272566292 288.3975111376991,80.33841621595099 298.3975111376991,79.89625034816714 308.3975111376991,79.46303406180056 318.3975111376991,79.03876631796817 328.3975111376991,78.62344609940197 338.3975111376991,78.21707241043447 348.3975111376991,77.81964427699137 358.3975111376991,77.43116074657706 368.3975111376991,77.0516208882637 378.3975111376991,76.68102379268026 388.3975111376991,76.31936857199986 398.3975111376991,75.96665435993424 408.3975111376991,75.62288031171562 418.3975111376991,75.28804560409486 428.3975111376991,74.96214943532146 438.3975111376991,74.64519102514538 448.3975111376991,74.33716961480064 458.3975111376991,74.03808446699628 468.3975111376991,73.74793486591267 478.3975111376991,73.46672011718516 488.3975111376991,73.19443954790228 498.3975111376991,72.93109250659478 508.3975111376991,72.67667836323022 518.3975111376991,72.4311965091984 528.3975111376991,72.19464635731316 538.3975111376991,71.96702734180332 548.3975111376991,71.74833891829991 558.3975111376991,71.5385805638362 568.3975111376991,71.3377517768368 578.3975111376991,71.14585207711758 588.3975111376991,70.96288100587304 598.3975111376991,70.78883812567625 608.3975111376991,70.62372302046793 618.3975111376991,70.46753529555832 628.3975111376991,70.32027457761802 638.3975111376991,70.18194051467259 648.3975111376991,70.05253277610615 658.3975111376991,69.93205105264502 668.3975111376991,69.8204950563632 678.3975111376991,69.71786452067869 688.3975111376991,69.6241592003426 698.3975111376991,69.53937887144644 708.3975111376991,69.46352333141118 718.3975111376991,69.39659239899089 728.3975111376991,69.33858591426912 738.3975111376991,69.28950373864978 748.3975111376991,69.24934575486628 758.3975111376991,69.2181118669742 768.3975111376991,69.19580200035313 778.3975111376991,69.18241610170122 788.3975111376991,69.17795413903701 798.3975111376991,69.18241610170122 808.3975111376991,69.19580200035313 818.3975111376991,69.2181118669742 828.3975111376991,69.24934575486628 838.3975111376991,69.28950373864978 848.3975111376991,69.33858591426912 858.3975111376991,69.39659239899089 868.3975111376991,69.46352333141118 878.3975111376991,69.53937887144644 888.3975111376991,69.6241592003426 898.3975111376991,69.71786452067869 908.3975111376991,69.8204950563632 918.3975111376991,69.93205105264502 928.3975111376991,70.05253277610615 938.3975111376991,70.18194051467259 948.3975111376991,70.32027457761802 958.3975111376991,70.46753529555832 968.3975111376991,70.62372302046793 978.3975111376991,70.78883812567625 988.3975111376991,70.96288100587304 998.3975111376991,71.14585207711758 1008.3975111376991,71.3377517768368 1018.3975111376991,71.5385805638362 1028.3975111376992,71.74833891829991 1038.3975111376992,71.96702734180332 1048.3975111376992,72.19464635731316 1058.3975111376992,72.4311965091984 1068.3975111376992,72.67667836323022 1078.3975111376992,72.93109250659478 1088.3975111376992,73.19443954790228 1098.3975111376992,73.46672011718516 1108.3975111376992,73.74793486591267 1118.3975111376992,74.03808446699628 1128.3975111376992,74.33716961480064 1138.3975111376992,74.64519102514538 1148.3975111376992,74.96214943532146 1158.3975111376992,75.28804560409486 1168.3975111376992,75.62288031171562 1178.3975111376992,75.96665435993424 1188.3975111376992,76.31936857199986 1198.3975111376992,76.68102379268026 1208.3975111376992,77.0516208882637 1218.3975111376992,77.43116074657706 1228.3975111376992,77.81964427699137 1238.3975111376992,78.21707241043447 1248.3975111376992,78.62344609940197 1258.3975111376992,79.03876631796817 1268.3975111376992,79.46303406180056 1278.3975111376992,79.89625034816714 1288.3975111376992,80.33841621595099 1298.3975111376992,80.78953272566292 1308.3975111376992,81.24960095945613 1318.3975111376992,81.7186220211334 1328.3975111376992,82.19659703616895 1338.3975111376992,82.6835271517121 1348.3975111376992,83.17941353660905 1358.3975111376992,83.68425738141383 1368.3975111376992,84.19805989840467 1368.3975111376992,84.19805989840467 1378.8673601484495,84.01530800413337 1389.324453260937,83.46727497635192 1399.7560501179953,82.55462850888665 1410.1494414257188,81.27848052087575 1420.4919644377783,79.64038580206704 1430.771018383027,77.64234011854631 1440.9740798175997,75.28677778120363 1451.088717882799,72.57656867990033 1461.1026094501835,69.5150147869507 1471.0035541353998,66.10584613417717 1480.7794891624728,62.35321626844092 1490.4185040604393,58.26169719118491 1499.9088551744223,53.836273788154756 1509.2389799734665,49.08233775608272 1518.3975111376992,44.005681033736266 1527.3732904076608,38.612488745332485 1536.1553821789232,32.909331664917175 1544.7330868254412,26.903158210888904 1553.0959537353967,20.601285980421267 1561.233794043661,14.011392834098075 1569.1366930453567,7.1415075416229 1576.7950222753984,0.0" style="fill:none;stroke:black;stroke-width:1" /></svg>